<svg id="Parrot_Trace" data-name="Parrot Trace" xmlns="http://www.w3.org/2000/svg" xmlns:xlink="http://www.w3.org/1999/xlink" viewBox="0 0 1536 1536"><defs><style>.cls-1,.cls-7,.cls-8,.cls-9{fill:none;}.cls-2{clip-path:url(#clip-path);}.cls-3{fill:url(#radial-gradient);}.cls-4{clip-path:url(#clip-path-2);}.cls-5{fill:url(#radial-gradient-2);}.cls-6{fill:#1c4256;}.cls-7,.cls-8,.cls-9{stroke:#1c4256;stroke-miterlimit:10;}.cls-7{stroke-width:25px;}.cls-8{stroke-width:40px;}.cls-9{stroke-width:48px;}</style><clipPath id="clip-path"><circle class="cls-1" cx="1992.31" cy="1716" r="259.31"/></clipPath><radialGradient id="radial-gradient" cx="1827.2" cy="1535.01" r="503.82" gradientUnits="userSpaceOnUse"><stop offset="0.42" stop-color="#aae860"/><stop offset="0.53" stop-color="#afe861"/><stop offset="0.66" stop-color="#bde762"/><stop offset="0.8" stop-color="#d4e764"/><stop offset="0.95" stop-color="#f3e568"/><stop offset="0.99" stop-color="#ffe569"/></radialGradient><clipPath id="clip-path-2"><circle class="cls-1" cx="768.5" cy="764.5" r="718.5"/></clipPath><radialGradient id="radial-gradient-2" cx="311" cy="263" r="1396" xlink:href="#radial-gradient"/></defs><title>Pairit</title><g class="cls-2"><circle class="cls-3" cx="1827.2" cy="1535.01" r="503.82"/></g><g class="cls-4"><circle class="cls-5" cx="311" cy="263" r="1396"/><circle class="cls-6" cx="756.21" cy="538.56" r="34.93"/><path class="cls-7" d="M729.09,961c-11.51-61.59-31.87-193.76-140.2-231.38,0,0-27.17-83.23-86.62-112.1-56.57-27.48-99.56-102-137.08-123.26"/><path class="cls-8" d="M588.36,727.65C486,797.25,404.13,866.85,387.76,940.54"/><path class="cls-7" d="M376.72,491c4.34-9.57,34.61-29.68,61.33-9.64,28.28,21.21,50,87.23,89.08,77s58.31-61.79,100.13-86.62c56.83-33.75,167.16-34.28,223.22,49s47,184.41,8.19,274.86C828.58,865.74,781.38,910.4,734.09,964c-22,24.55-35.59,38.47-80.32,71.68"/><path class="cls-7" d="M729.09,961c-10.54-61.77-31.87-193.76-140.2-231.38"/><path class="cls-8" d="M1503.46,636.12q-10.83-13-22.38-25.38C1359.58,480,1204.25,381.34,1035,325.16,916.22,285.75,784,262.93,658.79,264.55c-108.57,1.41-227.09,24.72-305.34,106-40.32,41.89-35.4,90.36,7.83,126.39C232.19,660,157.45,894.42,422.43,1169.59c0,0-66.24-214-25.48-241.2,0,0,92.09,92,245.46,106.3-24.82,19-43,35-53.52,61.86-18.68,47.56-8.49,127.39-8.49,127.39l71.34,373.69,747.38-127.39L1648.81,981c13.65-26.74-19.82-108.35-28-133.13A641.78,641.78,0,0,0,1503.46,636.12Z"/></g><circle class="cls-9" cx="768.5" cy="764.5" r="718.5"/><g class="cls-4"><circle class="cls-6" cx="756.21" cy="538.56" r="34.93"/><path class="cls-7" d="M729.09,961c-11.51-61.59-31.87-193.76-140.2-231.38,0,0-27.17-83.23-86.62-112.1-56.57-27.48-99.56-102-137.08-123.26"/><path class="cls-8" d="M588.36,727.65C486,797.25,404.13,866.85,387.76,940.54"/><path class="cls-7" d="M376.72,491c4.34-9.57,34.61-29.68,61.33-9.64,28.28,21.21,50,87.23,89.08,77s58.31-61.79,100.13-86.62c56.83-33.75,167.16-34.28,223.22,49s47,184.41,8.19,274.86C828.58,865.74,781.38,910.4,734.09,964c-22,24.55-35.59,38.47-80.32,71.68"/><path class="cls-7" d="M729.09,961c-10.54-61.77-31.87-193.76-140.2-231.38"/><path class="cls-8" d="M1503.46,636.12q-10.83-13-22.38-25.38C1359.58,480,1204.25,381.34,1035,325.16,916.22,285.75,784,262.93,658.79,264.55c-108.57,1.41-227.09,24.72-305.34,106-40.32,41.89-35.4,90.36,7.83,126.39C232.19,660,157.45,894.42,422.43,1169.59c0,0-66.24-214-25.48-241.2,0,0,92.09,92,245.46,106.3-24.82,19-43,35-53.52,61.86-18.68,47.56-8.49,127.39-8.49,127.39l71.34,373.69,747.38-127.39L1648.81,981c13.65-26.74-19.82-108.35-28-133.13A641.78,641.78,0,0,0,1503.46,636.12Z"/></g></svg>
